# xmcd
#
# Track frame offsets:
#	182
#	11865
#	24892
#	37180
#	49772
#	62685
#	75592
#	88020
#	100400
#	112655
#	124377
#	136290
#	148692
#	158422
#	169325
#	182865
#	193027
#	200965
#	215495
#	225805
#	234625
#
# Disc length: 3274 seconds
#
# Revision: 0
# Processed by: cddbd v1.4PL0 Copyright (c) Steve Scherf et al.
#
# Submitted via: MusicManager v6.0.0.0
#
DISCID=230cc815
DTITLE=Hank Williams - Vol II - Lovesick Blues
DYEAR=1900
DGENRE=country
TTITLE0=I'm Satisfied With You
TTITLE1=On The Banks Of The Old Pontchartrain
TTITLE2=Fly Trouble
TTITLE3=Rootie Tootie
TTITLE4=I Can't Get You Off Of My Mind
TTITLE5=I'm A Long Gone Daddy
TTITLE6=Honky Tonkin'
TTITLE7=My Sweet Love Ain't Around
TTITLE8=The Blues Come Around
TTITLE9=A Mansion On The Hill
TTITLE10=I'll Be A Bachelor 'Til I Die
TTITLE11=Lovesick Blues
TTITLE12=Rockin' Chair Money
TTITLE13=We Live In Two Different Worlds
TTITLE14=The Devil's Train
TTITLE15=When God Dips His Love In My Heart
TTITLE16=I Wish I Had A Nickel
TTITLE17=At The First Fall Of Snow
TTITLE18=Please Don't Let Me Love You
TTITLE19=Jesus Died For Me
TTITLE20=Weary Blues From Waitin'
EXTD=
EXTT0=
EXTT1=
EXTT2=
EXTT3=
EXTT4=
EXTT5=
EXTT6=
EXTT7=
EXTT8=
EXTT9=
EXTT10=
EXTT11=
EXTT12=
EXTT13=
EXTT14=
EXTT15=
EXTT16=
EXTT17=
EXTT18=
EXTT19=
EXTT20=
PLAYORDER=
